<svg height="512" viewBox="0 0 64 64" width="512" xmlns="http://www.w3.org/2000/svg"><g id="Mobile"><path d="m61 14h-25v-9a3 3 0 0 0 -3-3h-28a3 3 0 0 0 -3 3v54a3 3 0 0 0 3 3h28a3 3 0 0 0 3-3v-5h5a1 1 0 0 0 1-1v-7h19a1 1 0 0 0 1-1v-30a1 1 0 0 0 -1-1zm-1 8h-30v-6h30zm-20 8h-30v-6h30zm-11.281-26-.5 2h-18.438l-.5-2zm5.281 55a1 1 0 0 1 -1 1h-28a1 1 0 0 1 -1-1v-54a1 1 0 0 1 1-1h2.219l.811 3.242a1 1 0 0 0 .97.758h20a1 1 0 0 0 .97-.758l.811-3.242h2.219a1 1 0 0 1 1 1v9h-5a1 1 0 0 0 -1 1v7h-19a1 1 0 0 0 -1 1v30a1 1 0 0 0 1 1h25zm-24-7v-20h30v20zm32-8v-20h18v20z"/><path d="m34 18h2v2h-2z"/><path d="m38 18h2v2h-2z"/><path d="m42 18h2v2h-2z"/><path d="m54 18h2v2h-2z"/><path d="m49.707 27.293-1.414 1.414 5.293 5.293-5.293 5.293 1.414 1.414 6-6a1 1 0 0 0 0-1.414z"/><path d="m36.754 33h16.492v2h-16.492z" transform="matrix(.242 -.97 .97 .242 1.114 69.426)"/><path d="m14 26h2v2h-2z"/><path d="m18 26h2v2h-2z"/><path d="m22 26h2v2h-2z"/><path d="m34 26h2v2h-2z"/><path d="m20.293 35.293-6 6a1 1 0 0 0 0 1.414l6 6 1.414-1.414-5.293-5.293 5.293-5.293z"/><path d="m29.707 35.293-1.414 1.414 5.293 5.293-5.293 5.293 1.414 1.414 6-6a1 1 0 0 0 0-1.414z"/><path d="m16.754 41h16.492v2h-16.492z" transform="matrix(.242 -.97 .97 .242 -21.804 56.084)"/></g></svg>